<?xml version="1.0" encoding="UTF-8" standalone="no"?>
<!-- Created with Inkscape (http://www.inkscape.org/) -->

<svg
        width="62.718937mm"
        height="75.84288mm"
        viewBox="0 0 62.718937 75.84288"
        version="1.1"
        id="svg1"
        xmlns="http://www.w3.org/2000/svg"
>
    <defs
            id="defs1"/>
    <g
            id="layer2"
            style="display:inline"
            transform="translate(-73.449655,-106.8508)"/>
    <g
            id="layer1"
            style="display:inline"
            transform="translate(-73.449655,-106.8508)"/>
    <g
            id="layer3"
            transform="translate(-73.449655,-106.8508)"/>
    <g
            id="layer4"
            style="fill:#008080"
            transform="translate(-73.449655,-106.8508)"><path
       style="fill:none;stroke:#ebf0f2b7;stroke-width:1.5;stroke-dasharray:none;stroke-opacity:1"
       d="m 103.38667,182.31986 c -2.53895,-0.79989 -4.850836,-3.6914 -5.325676,-6.66088 -0.19613,-1.22652 -0.31795,-1.38513 -0.84658,-1.10222 -2.28329,1.22198 -5.8876,1.09508 -7.73439,-0.27231 -2.83351,-2.09798 -3.19166,-4.69695 -1.20787,-8.76524 1.13957,-2.337 1.22878,-2.70561 0.76665,-3.16774 -0.41202,-0.41203 -0.73345,-0.44297 -1.51495,-0.14584 -1.1115,0.42259 -1.42996,0.28495 -1.13274,-0.48958 0.26943,-0.70213 2.76622,-1.42012 3.9261,-1.129 1.45099,0.36417 1.62263,1.4454 0.67278,4.23809 -0.96618,2.84066 -1.04592,4.41574 -0.2969,5.86419 0.66248,1.2811 1.89862,1.62417 3.81791,1.05961 2.00129,-0.58868 3.32391,-1.94052 3.94508,-4.03222 0.85987,-2.89549 0.6717,-5.04826 -0.76342,-8.73426 -2.06257,-5.29751 -2.03864,-9.00732 0.0782,-12.12668 0.86733,-1.27808 0.86733,-1.27808 0.0666,-1.031 -3.26296,1.0068 -5.17442,3.59666 -6.79356,9.20464 -0.84345,2.92133 -1.81442,4.00427 -5.35882,5.97678 -3.93122,2.18778 -6.81644,4.9343 -6.81644,6.48875 0,1.27083 1.3469,2.82919 2.44528,2.82919 0.39347,0 0.99033,-0.4351 1.3308,-0.97013 1.12551,-1.7687 1.86836,-1.81441 1.86836,-0.11495 0,1.332 -1.14705,2.70711 -2.68024,3.21311 -1.04115,0.34361 -1.52514,0.31322 -2.80667,-0.1762 -2.18556,-0.83467 -3.33253,-2.30887 -3.33253,-4.28328 0,-3.32217 1.71087,-5.72367 6.01034,-8.43654 3.51979,-2.22092 4.94239,-3.97703 5.6468,-6.97063 0.52209,-2.21877 1.38302,-3.99799 2.6809,-5.54044 0.96621,-1.14827 0.96621,-1.14827 -0.24772,-0.87408 -1.92186,0.43409 -5.93802,0.24967 -8.56093,-0.39311 -3.21705,-0.78837 -5.47813,-2.33505 -6.53828,-4.47246 -1.44839,-2.92017 -0.56323,-4.95973 3.65509,-8.42191 1.98438,-1.62868 2.65082,-2.3869 2.57346,-2.92791 -0.27016,-1.88951 -5.21966,-1.27256 -5.21966,0.65062 0,0.5452 0.29052,1.04302 0.75322,1.29064 0.60179,0.32207 0.65498,0.46533 0.26458,0.71257 -2.31527,1.46629 -4.214125,-2.09258 -2.36844,-4.43898 1.524,-1.93746 5.59251,-2.92024 7.84343,-1.89466 0.9502,0.43294 1.97388,2.23108 1.97388,3.46721 0,1.20958 -0.61913,2.12052 -3.39709,4.99826 -1.43008,1.48144 -2.60014,2.95776 -2.60014,3.28072 0,2.47196 3.0728,4.08339 8.29028,4.34755 3.06528,0.1552 6.17361,-0.31696 6.17361,-0.93777 0,-0.1596 -0.9243,-0.374 -2.05401,-0.47644 -4.99597,-0.45302 -7.21269,-3.28639 -6.41339,-8.19746 0.40014,-2.45861 1.16011,-3.9795 3.66595,-7.3365 3.33165,-4.46333 4.00257,-6.51223 2.85752,-8.72651 -0.8836,-1.7087 -2.75593,-2.29824 -3.84386,-1.21031 -0.44639,0.44639 -0.46716,0.67458 -0.11339,1.24549 0.83117,1.34132 -1.33073,1.91219 -2.56548,0.67744 -0.86982,-0.86982 -0.8699,-0.96087 -0.002,-2.38448 0.82838,-1.35864 2.64456,-2.55203 3.88246,-2.55112 1.56928,0.001 3.59634,0.73875 4.4922,1.63461 0.48086,0.48087 0.90186,0.825 0.93554,0.76473 0.0337,-0.0603 0.31782,-0.6652 0.63142,-1.3443 1.00457,-2.1754 3.02524,-4.14588 5.5017,-5.36504 2.167126,-1.06687 2.632256,-1.16132 5.717826,-1.16108 4.0173,3.1e-4 5.82133,0.67979 8.24818,3.10664 1.16818,1.16819 1.73127,2.11088 2.17674,3.64418 0.9938,3.42066 1.14413,3.63719 1.09404,1.57577 -0.0302,-1.24124 0.10719,-1.95735 0.39471,-2.05787 0.24254,-0.0848 0.44341,0.0575 0.44638,0.3162 0.003,0.2587 0.15203,0.70218 0.33124,0.98551 0.27982,0.44239 0.42465,0.42571 1.02555,-0.11809 1.60346,-1.45111 4.88305,-0.96764 6.20111,0.91415 0.79968,1.1417 0.71013,3.49978 -0.16871,4.44311 -0.96974,1.04089 -3.403,1.06207 -4.70119,0.0409 -0.90692,-0.71339 -0.92952,-0.71444 -0.92952,-0.0431 0,1.31396 1.11643,3.34734 2.83633,5.16588 2.80571,2.96663 4.31421,7.1596 3.55936,9.89345 -0.3192,1.15605 -0.2932,1.27054 0.23905,1.05249 1.81996,-0.74558 2.96065,-0.88194 4.31872,-0.51624 1.7236,0.46411 1.68564,1.26339 -0.0549,1.15659 -1.95783,-0.12014 -3.38871,0.50954 -3.79295,1.66913 -0.56641,1.62481 0.0749,3.04945 2.51971,5.59708 2.73337,2.84836 3.9129,5.14516 3.85893,7.51421 -0.0391,1.71731 -0.0391,1.71731 0.87064,1.0017 1.02284,-0.80457 2.22571,-0.94778 2.22571,-0.265 0,0.24784 -0.47625,0.86851 -1.05833,1.37928 -1.05834,0.92867 -1.05834,0.92867 -1.05834,5.02878 0,4.93155 -0.31968,5.85426 -2.93411,8.46868 -2.18105,2.18105 -3.99644,2.86898 -6.55752,2.48492 -3.27394,-0.49095 -5.37933,-2.21554 -6.99478,-5.72963 -0.88293,-1.92062 -1.51745,-2.24798 -2.9113,-1.50201 -1.58624,0.84893 -1.59593,3.39229 -0.0355,9.32956 0.98381,3.74333 0.93365,5.2773 -0.24237,7.41323 -1.31551,2.38927 -3.26865,3.3823 -7.01527,3.56676 -1.52134,0.0749 -3.24232,-0.0139 -3.82441,-0.19724 z m 6.53345,-4.06187 c 1.95965,-1.01337 2.24572,-3.00357 1.05128,-7.31386 -1.69613,-6.12066 -0.31351,-9.83885 3.86711,-10.39959 1.61764,-0.21697 1.66795,-0.38731 0.93138,-3.15369 -0.7116,-2.67265 -2.04664,-5.38019 -3.51244,-7.12346 -1.29146,-1.53592 -1.29146,-1.53592 -1.81792,-0.27591 -0.66496,1.59147 -0.66403,3.73757 0.003,6.22155 1.16569,4.34291 0.5086,6.07591 -4.09388,10.79711 -4.25738,4.36719 -4.91529,6.10566 -3.49495,9.23508 0.47165,1.03918 1.04785,1.66859 1.84434,2.01466 1.52604,0.66306 3.9382,0.66219 5.22238,-0.002 z m 18.4495,-13.18526 c 1.23929,-0.7099 2.99463,-3.30912 3.21815,-4.76527 0.0925,-0.6027 0.2276,-2.00918 0.30018,-3.12551 0.12044,-1.8523 0.0821,-1.98451 -0.43923,-1.51276 -1.61868,1.46489 -4.54659,1.95355 -7.24816,1.20971 -1.38589,-0.38159 -4.20419,-2.90006 -6.07461,-5.42837 -0.78294,-1.05833 -0.78294,-1.05833 -0.28888,0.19509 0.27173,0.68939 0.92763,2.91189 1.45756,4.93889 1.16418,4.45308 1.85639,6.15017 3.12209,7.65436 1.54148,1.83195 3.68608,2.13236 5.9529,0.83386 z m -23.62184,-2.14802 c 0.69675,-0.77122 1.3627,-1.78424 1.47989,-2.25116 0.11719,-0.46691 -0.13611,-2.27273 -0.56289,-4.01292 -0.75212,-3.06683 -0.75839,-3.25065 -0.20411,-5.98613 0.6951,-3.43045 0.70663,-4.02005 0.095,-4.85649 -0.44945,-0.61467 -0.56991,-0.56631 -2.09812,0.84235 -3.05507,2.81606 -3.497836,5.75963 -1.71494,11.401 0.59723,1.8897 1.12343,4.07251 1.16935,4.85069 0.0459,0.77818 0.19272,1.41487 0.32624,1.41487 0.13351,0 0.81282,-0.63099 1.50957,-1.40221 z m 23.66611,-10.31795 c 0.69679,-0.9948 0.70609,-3.18087 0.0192,-4.50919 -0.29148,-0.56367 -1.46769,-2.08123 -2.61379,-3.37234 -1.29439,-1.45818 -2.16693,-2.79054 -2.30322,-3.51703 -0.21941,-1.16956 -0.21941,-1.16956 -1.70773,-0.32286 -0.81858,0.46569 -2.37817,0.94783 -3.46575,1.07144 -1.97743,0.22473 -1.97743,0.22473 -0.46485,1.61897 0.91672,0.845 2.14571,2.62011 3.1198,4.50613 1.95736,3.78981 3.52782,5.30893 5.48835,5.30893 1.02493,0 1.51979,-0.20124 1.928,-0.78405 z m -7.57147,-15.74309 c 0.96997,-0.81152 1.14363,-1.21954 1.31163,-3.08176 0.22296,-2.47151 0.20112,-2.52537 -2.93012,-7.22732 -1.23671,-1.85707 -2.45985,-3.98678 -2.71809,-4.73269 -0.46953,-1.3562 -0.46953,-1.3562 -1.28278,1.17303 -0.4473,1.39108 -1.25491,3.22564 -1.7947,4.07681 -1.28972,2.03367 -1.73713,5.5912 -0.90543,7.19951 0.99632,1.92668 4.6313,4.01911 6.39598,3.68177 0.44303,-0.0847 1.30861,-0.5749 1.92351,-1.08935 z m -25.226676,-0.59911 c 3.27626,-1.61097 3.72215,-5.91118 0.95784,-9.23734 -0.76895,-0.92523 -1.66751,-2.21642 -1.99682,-2.8693 -0.32931,-0.65289 -0.71547,-1.04976 -0.85814,-0.88195 -0.14267,0.16782 -1.06226,1.41637 -2.04353,2.77456 -3.84498,5.3219 -4.37507,7.92095 -2.11144,10.35234 0.66724,0.71669 1.02973,0.80884 2.71053,0.68903 1.06715,-0.0761 2.57085,-0.44837 3.34156,-0.82734 z m 7.399856,-4.71636 c 0.29546,-0.47807 -2.69837,-2.56933 -3.101346,-2.16635 -0.42624,0.42624 0.359466,2.39047 1.128326,2.82074 0.56263,0.31487 1.58318,-0.0236 1.97302,-0.65439 z m 6.56423,0.66549 c 0.58748,-0.31441 1.74434,-2.0506 1.74434,-2.61786 0,-0.52902 -1.37156,-0.0615 -2.45513,0.83694 -1.0542,0.87405 -1.15642,1.08897 -0.75056,1.57801 0.55475,0.66843 0.58394,0.67248 1.46135,0.20291 z m 13.20962,-14.80621 c 0,-0.95868 -0.72148,-1.26364 -2.14457,-0.90647 -1.12002,0.28111 -1.08073,0.75988 0.1161,1.41485 1.32198,0.72347 2.02847,0.54641 2.02847,-0.50838 z"
       id="path13-2" /></g></svg>
